<svg width="153" height="28" viewBox="0 0 153 28" fill="none" xmlns="http://www.w3.org/2000/svg">
<path d="M19.1918 7.785C19.111 3.54473 16.0822 1.04095 11.8823 1.04095C6.63249 1.04095 2.23068 5.03892 1.14033 11.5003C0.0499717 18.1232 3.28065 22.2827 8.65166 22.2827C12.7304 22.2827 16.4457 19.7789 17.9399 15.5386H15.4361C14.3457 18.4059 11.5593 19.9404 8.73243 19.9404C5.05753 19.9404 2.63452 17.1136 3.52295 11.8234C4.41139 6.37158 7.92476 3.3832 11.7612 3.3832C14.4265 3.3832 16.6072 4.91777 16.7284 7.785H19.1918ZM26.9934 22.3231C31.1125 22.3231 34.3835 19.2135 35.1508 14.4887C35.9484 9.56187 33.6163 6.29081 29.3356 6.29081C25.2165 6.29081 21.9454 9.40034 21.1781 14.1656C20.3906 19.052 22.7127 22.3231 26.9934 22.3231ZM27.0337 20.1827C23.9242 20.1827 22.9954 17.5174 23.48 14.4887C23.9949 11.2984 26.0241 8.43114 29.2952 8.43114C32.4047 8.43114 33.3336 11.1368 32.849 14.1656C32.3341 17.366 30.3048 20.1827 27.0337 20.1827ZM37.536 22H39.9186L41.5339 12.308C41.8974 10.0465 43.8358 8.43114 45.6934 8.43114C47.5107 8.43114 48.5607 9.60226 48.278 11.3791L46.5011 22H48.9241L50.6202 11.9041C50.9433 9.88494 52.4375 8.43114 54.6182 8.43114C56.3143 8.43114 57.6066 9.31957 57.2431 11.6214L55.5066 22H57.8893L59.6258 11.6214C60.2315 7.98692 58.5354 6.29081 55.7893 6.29081C53.5682 6.29081 51.751 7.3004 50.701 8.91574H50.5395C50.0549 7.26001 48.8434 6.29081 46.8242 6.29081C44.805 6.29081 43.1493 7.26001 42.2205 8.91574H42.0185L42.4224 6.49273H40.1205L37.536 22ZM62.2456 22H64.6283L66.2436 12.308C66.6071 10.0465 68.5455 8.43114 70.4031 8.43114C72.2204 8.43114 73.2703 9.60226 72.9877 11.3791L71.2108 22H73.6338L75.3299 11.9041C75.653 9.88494 77.1472 8.43114 79.3279 8.43114C81.024 8.43114 82.3163 9.31957 81.9528 11.6214L80.2163 22H82.5989L84.3354 11.6214C84.9412 7.98692 83.2451 6.29081 80.499 6.29081C78.2779 6.29081 76.4606 7.3004 75.4107 8.91574H75.2491C74.7645 7.26001 73.553 6.29081 71.5339 6.29081C69.5147 6.29081 67.859 7.26001 66.9301 8.91574H66.7282L67.1321 6.49273H64.8302L62.2456 22ZM97.7781 15.6598C97.2935 18.5674 94.8705 19.9001 93.0936 19.9001C91.1148 19.9001 89.9437 18.4462 90.3071 16.1848L91.9225 6.49273H89.5399L87.8841 16.3463C87.238 20.3039 89.0149 22.2019 91.9225 22.2019C94.2647 22.2019 96.0416 20.95 97.0108 19.3751H97.1723L96.7281 22H99.1108L101.695 6.49273H99.3127L97.7781 15.6598ZM107.392 12.6714C107.876 9.96571 109.775 8.43114 112.076 8.43114C114.297 8.43114 115.388 9.88494 114.984 12.308L113.369 22H115.751L117.407 12.1464C118.053 8.18883 116.236 6.29081 113.126 6.29081C110.784 6.29081 109.128 7.34078 108.159 8.91574H107.957L108.361 6.49273H106.059L103.475 22H105.857L107.392 12.6714ZM120.105 22H122.488L125.072 6.49273H122.69L120.105 22ZM124.608 3.8678C125.537 3.8678 126.304 3.14089 126.304 2.25246C126.304 1.36402 125.537 0.637115 124.608 0.637115C123.679 0.637115 122.912 1.36402 122.912 2.25246C122.912 3.14089 123.679 3.8678 124.608 3.8678ZM136.18 6.49273H132.859L133.475 2.77744H131.092L130.476 6.49273H128.144L127.821 8.5119H130.143L128.548 18.2039C128.104 20.9096 130.042 22.2019 132.061 22.2019C132.95 22.2019 133.555 22.0404 133.919 21.9192L133.757 19.7789C133.555 19.8193 133.232 19.9001 132.707 19.9001C131.657 19.9001 130.688 19.577 131.011 17.5578L132.515 8.5119H135.857L136.18 6.49273ZM137.765 27.8152C139.865 27.8152 141.602 26.7249 142.934 24.2413L152.445 6.49273H149.759L143.419 18.8905H143.258L141.036 6.49273H138.553L141.662 22L140.996 23.2115C139.704 25.5638 138.694 25.8768 137.038 25.4326L136.069 27.5325C136.291 27.6537 136.958 27.8152 137.765 27.8152Z" fill="#8939C8"/>
</svg>
