<svg width="100" height="100" viewBox="0 0 100 100" fill="none" xmlns="http://www.w3.org/2000/svg">
<path d="M99.6094 49.8047C99.6094 77.3111 77.3111 99.6094 49.8047 99.6094C22.2983 99.6094 0 77.3111 0 49.8047C0 22.2983 22.2983 0 49.8047 0C77.3111 0 99.6094 22.2983 99.6094 49.8047Z" fill="#F5E6FF"/>
<path fill-rule="evenodd" clip-rule="evenodd" d="M26.9531 44.5312C26.9531 43.0211 28.1773 41.7969 29.6875 41.7969H70.7031C72.2133 41.7969 73.4375 43.0211 73.4375 44.5312C73.4375 46.0414 72.2133 47.2656 70.7031 47.2656H29.6875C28.1773 47.2656 26.9531 46.0414 26.9531 44.5312Z" fill="#8939C8"/>
<path fill-rule="evenodd" clip-rule="evenodd" d="M30.8594 36.3281C30.8594 34.818 32.0836 33.5938 33.5938 33.5938H67.1875C68.6977 33.5938 69.9219 34.818 69.9219 36.3281C69.9219 37.8383 68.6977 39.0625 67.1875 39.0625H33.5938C32.0836 39.0625 30.8594 37.8383 30.8594 36.3281Z" fill="#8939C8"/>
<path fill-rule="evenodd" clip-rule="evenodd" d="M50 51.3672C51.5102 51.3672 52.7344 52.5914 52.7344 54.1016L52.7344 60.9375C52.7344 62.4477 51.5101 63.6719 50 63.6719C48.4898 63.6719 47.2656 62.4477 47.2656 60.9375L47.2656 54.1016C47.2656 52.5914 48.4898 51.3672 50 51.3672ZM37.8906 51.5625C39.4008 51.5625 40.625 52.7867 40.625 54.2969L40.625 82.0312C40.625 83.5414 39.4008 84.7656 37.8906 84.7656C36.3805 84.7656 35.1563 83.5414 35.1563 82.0312L35.1562 54.2969C35.1562 52.7867 36.3805 51.5625 37.8906 51.5625ZM62.1094 51.5625C63.6195 51.5625 64.8438 52.7867 64.8438 54.2969V82.0312C64.8438 83.5414 63.6195 84.7656 62.1094 84.7656C60.5992 84.7656 59.375 83.5414 59.375 82.0312L59.375 54.2969C59.375 52.7867 60.5992 51.5625 62.1094 51.5625ZM50 67.9688C51.5102 67.9688 52.7344 69.193 52.7344 70.7031V81.6406C52.7344 83.1508 51.5102 84.375 50 84.375C48.4898 84.375 47.2656 83.1508 47.2656 81.6406L47.2656 70.7031C47.2656 69.193 48.4898 67.9688 50 67.9688Z" fill="#8939C8"/>
<path fill-rule="evenodd" clip-rule="evenodd" d="M28.9062 30.6641C28.9062 32.2821 30.2179 33.5938 31.8359 33.5938H35.8168C35.6471 32.2924 35.2902 30.8623 34.6946 29.7121C34.2794 28.9105 33.8488 28.4386 33.4752 28.175C33.1602 27.9529 32.6927 27.7344 31.8359 27.7344C30.2179 27.7344 28.9062 29.046 28.9062 30.6641ZM41.3191 33.5938C40.8844 29.0324 38.691 22.2656 31.8359 22.2656C27.1976 22.2656 23.4375 26.0257 23.4375 30.6641C23.4375 35.3024 27.1976 39.0625 31.8359 39.0625H41.4062C41.4062 37.3399 41.4063 36.1599 41.4062 35.3516C41.4062 35.3465 41.4062 35.3415 41.4062 35.3365C41.4057 34.8136 41.3793 34.2248 41.3191 33.5938ZM67.7734 33.5938C69.3915 33.5938 70.7031 32.2821 70.7031 30.6641C70.7031 29.046 69.3915 27.7344 67.7734 27.7344C66.9166 27.7344 66.4492 27.9529 66.1342 28.175C65.7605 28.4386 65.3299 28.9105 64.9148 29.7121C64.3192 30.8623 63.9623 32.2924 63.7925 33.5938H67.7734ZM58.2031 39.0625C58.2031 37.3399 58.2031 36.1599 58.2031 35.3516C58.2031 31.0547 59.9609 22.2656 67.7734 22.2656C72.4118 22.2656 76.1719 26.0257 76.1719 30.6641C76.1719 35.3024 72.4118 39.0625 67.7734 39.0625H58.2031Z" fill="#8939C8"/>
<path fill-rule="evenodd" clip-rule="evenodd" d="M49.8047 94.1406C74.2908 94.1406 94.1406 74.2908 94.1406 49.8047C94.1406 25.3186 74.2908 5.46875 49.8047 5.46875C25.3186 5.46875 5.46875 25.3186 5.46875 49.8047C5.46875 74.2908 25.3186 94.1406 49.8047 94.1406ZM49.8047 99.6094C77.3111 99.6094 99.6094 77.3111 99.6094 49.8047C99.6094 22.2983 77.3111 0 49.8047 0C22.2983 0 0 22.2983 0 49.8047C0 77.3111 22.2983 99.6094 49.8047 99.6094Z" fill="#8939C8"/>
</svg>
