<svg width="639" height="100" viewBox="0 0 639 100" fill="none" xmlns="http://www.w3.org/2000/svg">
<path d="M174.027 46.3098C173.623 49.8115 172.388 52.7969 170.323 55.266C168.258 57.7351 165.452 59.6207 161.906 60.9226C158.359 62.2245 154.139 62.8754 149.246 62.8754C145.16 62.8754 141.412 62.404 138 61.4613C134.633 60.5185 131.715 59.1044 129.246 57.2189C126.822 55.3333 124.936 52.9989 123.589 50.2155C122.242 47.3872 121.569 44.0876 121.569 40.3165C121.569 36.5455 122.242 33.2458 123.589 30.4175C124.936 27.5893 126.822 25.2324 129.246 23.3468C131.715 21.4164 134.633 19.9798 138 19.0371C141.412 18.0494 145.16 17.5556 149.246 17.5556C154.139 17.5556 158.359 18.229 161.906 19.5758C165.497 20.9226 168.325 22.853 170.391 25.367C172.456 27.8362 173.668 30.844 174.027 34.3906H165.138C164.554 32.5051 163.567 30.8889 162.175 29.5421C160.828 28.1504 159.077 27.0954 156.923 26.3771C154.768 25.6588 152.209 25.2997 149.246 25.2997C145.565 25.2997 142.332 25.8833 139.549 27.0505C136.765 28.1729 134.611 29.8564 133.084 32.101C131.558 34.3008 130.795 37.0393 130.795 40.3165C130.795 43.5488 131.558 46.2649 133.084 48.4647C134.611 50.6644 136.765 52.3479 139.549 53.5152C142.332 54.6375 145.565 55.1987 149.246 55.1987C152.209 55.1987 154.745 54.8395 156.855 54.1212C159.01 53.4029 160.761 52.3704 162.108 51.0236C163.499 49.6768 164.509 48.1055 165.138 46.3098H174.027ZM201.351 62.8081C197.131 62.8081 193.405 62.1347 190.173 60.7879C186.985 59.4411 184.494 57.4882 182.698 54.9293C180.902 52.3255 180.004 49.1381 180.004 45.367C180.004 41.596 180.902 38.4086 182.698 35.8047C184.494 33.156 186.985 31.1583 190.173 29.8115C193.405 28.4647 197.131 27.7913 201.351 27.7913C205.571 27.7913 209.252 28.4647 212.395 29.8115C215.582 31.1583 218.074 33.156 219.87 35.8047C221.665 38.4086 222.563 41.596 222.563 45.367C222.563 49.1381 221.665 52.3255 219.87 54.9293C218.074 57.4882 215.582 59.4411 212.395 60.7879C209.252 62.1347 205.571 62.8081 201.351 62.8081ZM201.351 56.0741C203.686 56.0741 205.773 55.67 207.614 54.862C209.499 54.009 210.981 52.7969 212.058 51.2256C213.136 49.6094 213.674 47.6566 213.674 45.367C213.674 43.0775 213.136 41.1246 212.058 39.5084C210.981 37.8474 209.522 36.5904 207.681 35.7374C205.84 34.8844 203.73 34.4579 201.351 34.4579C199.017 34.4579 196.907 34.8844 195.021 35.7374C193.136 36.5904 191.632 37.8249 190.509 39.4411C189.432 41.0573 188.893 43.0326 188.893 45.367C188.893 47.6566 189.432 49.6094 190.509 51.2256C191.587 52.7969 193.068 54.009 194.954 54.862C196.839 55.67 198.972 56.0741 201.351 56.0741ZM245.331 62.7407C241.964 62.7407 238.911 62.0224 236.173 60.5859C233.479 59.1044 231.347 57.0617 229.775 54.4579C228.204 51.8092 227.419 48.7565 227.419 45.2997C227.419 41.7531 228.182 38.6779 229.708 36.0741C231.279 33.4703 233.412 31.4501 236.105 30.0135C238.799 28.532 241.874 27.7913 245.331 27.7913C248.339 27.7913 250.898 28.2402 253.008 29.1381C255.118 30.0359 256.824 31.293 258.126 32.9091C259.427 34.4804 260.37 36.321 260.954 38.431C261.582 40.541 261.897 42.8305 261.897 45.2997C261.897 47.275 261.582 49.2952 260.954 51.3603C260.325 53.3805 259.36 55.266 258.058 57.0168C256.756 58.7228 255.05 60.1145 252.94 61.1919C250.83 62.2245 248.294 62.7407 245.331 62.7407ZM248.159 56.0067C250.808 56.0067 253.098 55.5578 255.028 54.6599C256.958 53.7621 258.44 52.5051 259.472 50.8889C260.505 49.2727 261.021 47.4097 261.021 45.2997C261.021 43.0101 260.482 41.0797 259.405 39.5084C258.373 37.8923 256.891 36.6577 254.961 35.8047C253.075 34.9518 250.808 34.5253 248.159 34.5253C244.433 34.5253 241.538 35.5129 239.472 37.4882C237.407 39.4635 236.375 42.0674 236.375 45.2997C236.375 47.4546 236.869 49.3401 237.856 50.9562C238.844 52.5275 240.213 53.7621 241.964 54.6599C243.76 55.5578 245.825 56.0067 248.159 56.0067ZM261.021 15.064H269.775V62H261.627C261.493 60.9675 261.358 59.6431 261.223 58.0269C261.089 56.3659 261.021 54.8171 261.021 53.3805V15.064ZM309.716 50.8889H318.201C317.842 53.1785 316.876 55.2211 315.305 57.0168C313.779 58.8126 311.691 60.2267 309.043 61.2593C306.394 62.2918 303.161 62.8081 299.346 62.8081C295.081 62.8081 291.31 62.1347 288.032 60.7879C284.755 59.3962 282.196 57.3984 280.356 54.7946C278.515 52.1908 277.595 49.0483 277.595 45.367C277.595 41.6858 278.493 38.5432 280.288 35.9394C282.084 33.2907 284.576 31.2705 287.763 29.8788C290.995 28.4871 294.766 27.7913 299.076 27.7913C303.476 27.7913 307.135 28.4871 310.053 29.8788C312.971 31.2705 315.126 33.3805 316.517 36.2088C317.954 38.9922 318.56 42.5612 318.335 46.9158H286.416C286.641 48.6218 287.269 50.1706 288.302 51.5623C289.379 52.954 290.816 54.0539 292.612 54.862C294.452 55.67 296.63 56.0741 299.144 56.0741C301.927 56.0741 304.239 55.6027 306.08 54.6599C307.965 53.6723 309.177 52.4153 309.716 50.8889ZM298.672 34.4579C295.44 34.4579 292.814 35.1762 290.793 36.6128C288.773 38.0045 287.471 39.7329 286.888 41.798H309.649C309.424 39.5533 308.347 37.78 306.416 36.4781C304.531 35.1313 301.949 34.4579 298.672 34.4579ZM324.85 28.532H333.604V62H324.85V28.532ZM346.466 35.7374C343.952 35.7374 341.774 36.2312 339.934 37.2189C338.093 38.1616 336.612 39.3289 335.489 40.7206C334.367 42.1123 333.581 43.4591 333.132 44.761L333.065 41.0573C333.11 40.5185 333.289 39.7329 333.604 38.7004C333.918 37.6229 334.389 36.4781 335.018 35.266C335.646 34.009 336.477 32.8193 337.509 31.697C338.542 30.5298 339.799 29.587 341.28 28.8687C342.762 28.1504 344.49 27.7913 346.466 27.7913V35.7374ZM350.531 50.8889H358.612C359.105 52.4153 360.116 53.6723 361.642 54.6599C363.213 55.6027 365.256 56.0741 367.77 56.0741C369.476 56.0741 370.8 55.917 371.743 55.6027C372.686 55.2884 373.337 54.8395 373.696 54.2559C374.055 53.6274 374.234 52.9315 374.234 52.1684C374.234 51.2256 373.943 50.5073 373.359 50.0135C372.775 49.4748 371.878 49.0483 370.665 48.734C369.453 48.4198 367.905 48.128 366.019 47.8586C364.133 47.5443 362.315 47.1628 360.564 46.7138C358.814 46.2649 357.265 45.6813 355.918 44.963C354.571 44.1998 353.494 43.257 352.686 42.1347C351.922 40.9675 351.541 39.5533 351.541 37.8923C351.541 36.2761 351.922 34.8395 352.686 33.5825C353.494 32.3255 354.594 31.2705 355.985 30.4175C357.422 29.5646 359.083 28.9136 360.968 28.4647C362.899 28.0157 364.964 27.7913 367.164 27.7913C370.486 27.7913 373.247 28.2851 375.447 29.2728C377.646 30.2155 379.285 31.5623 380.362 33.3132C381.485 35.0191 382.046 36.9944 382.046 39.2391H374.302C373.943 37.578 373.224 36.3884 372.147 35.6701C371.069 34.9069 369.408 34.5253 367.164 34.5253C364.964 34.5253 363.303 34.862 362.181 35.5354C361.058 36.2088 360.497 37.1291 360.497 38.2963C360.497 39.2391 360.834 39.9798 361.507 40.5185C362.226 41.0124 363.258 41.4164 364.605 41.7307C365.997 42.0449 367.725 42.3816 369.79 42.7408C371.541 43.0999 373.202 43.5039 374.773 43.9529C376.389 44.4018 377.826 44.9854 379.083 45.7037C380.34 46.3771 381.328 47.2974 382.046 48.4647C382.809 49.587 383.191 51.0236 383.191 52.7744C383.191 54.9293 382.562 56.7475 381.305 58.229C380.093 59.7104 378.342 60.8552 376.053 61.6633C373.763 62.4265 371.025 62.8081 367.837 62.8081C365.009 62.8081 362.562 62.5163 360.497 61.9327C358.477 61.3042 356.793 60.5185 355.447 59.5758C354.1 58.5881 353.045 57.5556 352.282 56.4781C351.563 55.3558 351.07 54.3008 350.8 53.3131C350.531 52.3255 350.441 51.5174 350.531 50.8889ZM390.359 35.8047L389.147 33.5152C389.821 32.5275 390.471 31.4276 391.1 30.2155C391.773 28.9585 392.133 27.7015 392.177 26.4445L388.474 25.7037V18.027H398.777V23.5489C398.777 26.6914 398.014 29.2503 396.487 31.2256C395.006 33.156 392.963 34.6824 390.359 35.8047ZM409.079 52.5051V45.0303H437.901V52.5051H409.079ZM398.237 62L418.709 18.431H428.406L449.079 62H439.315L421.402 22.7408H425.712L407.934 62H398.237ZM470.574 56.8822C466.938 56.8822 463.728 56.3434 460.945 55.266C458.206 54.1437 456.074 52.5051 454.547 50.3502C453.021 48.1953 452.258 45.5915 452.258 42.5387C452.258 39.5309 452.999 36.9271 454.48 34.7273C455.962 32.5275 458.072 30.8216 460.81 29.6095C463.593 28.3973 466.848 27.7913 470.574 27.7913C471.607 27.7913 472.595 27.8586 473.537 27.9933C474.525 28.128 475.49 28.3076 476.433 28.532L493.335 28.5994V35.1987C491.046 35.2436 488.711 34.9742 486.332 34.3906C483.997 33.7621 481.932 33.0887 480.137 32.3704L479.935 31.899C481.461 32.6173 482.898 33.5152 484.244 34.5926C485.591 35.6252 486.669 36.8373 487.477 38.229C488.33 39.5758 488.756 41.147 488.756 42.9428C488.756 45.8608 488.015 48.3749 486.534 50.4849C485.052 52.55 482.942 54.1437 480.204 55.266C477.51 56.3434 474.3 56.8822 470.574 56.8822ZM481.82 75.8047V74.1885C481.82 72.1234 481.147 70.6869 479.8 69.8788C478.498 69.0707 476.702 68.6667 474.413 68.6667H463.975C461.955 68.6667 460.249 68.5095 458.857 68.1953C457.51 67.881 456.433 67.4321 455.625 66.8485C454.817 66.2649 454.233 65.569 453.874 64.7609C453.515 63.9978 453.335 63.1672 453.335 62.2694C453.335 60.4736 453.919 59.1268 455.086 58.229C456.253 57.2862 457.825 56.6577 459.8 56.3434C461.775 56.0292 463.953 55.9618 466.332 56.1414L470.574 56.8822C467.746 56.9719 465.636 57.2189 464.244 57.6229C462.898 57.982 462.224 58.7228 462.224 59.8451C462.224 60.5185 462.494 61.0572 463.032 61.4613C463.571 61.8204 464.334 62 465.322 62H476.298C479.306 62 481.865 62.3143 483.975 62.9428C486.13 63.6162 487.768 64.716 488.891 66.2424C490.013 67.8137 490.574 69.9461 490.574 72.6397V75.8047H481.82ZM470.574 50.5522C472.505 50.5522 474.188 50.2379 475.625 49.6094C477.106 48.9809 478.251 48.0831 479.059 46.9158C479.867 45.7037 480.271 44.2671 480.271 42.6061C480.271 40.9001 479.867 39.4411 479.059 38.229C478.251 37.0169 477.129 36.0965 475.692 35.468C474.256 34.7946 472.55 34.4579 470.574 34.4579C468.644 34.4579 466.938 34.7946 465.456 35.468C463.975 36.0965 462.83 37.0169 462.022 38.229C461.214 39.4411 460.81 40.9001 460.81 42.6061C460.81 44.2671 461.214 45.7037 462.022 46.9158C462.83 48.0831 463.953 48.9809 465.389 49.6094C466.871 50.2379 468.599 50.5522 470.574 50.5522ZM518.191 62.8081C513.971 62.8081 510.245 62.1347 507.013 60.7879C503.825 59.4411 501.334 57.4882 499.538 54.9293C497.742 52.3255 496.844 49.1381 496.844 45.367C496.844 41.596 497.742 38.4086 499.538 35.8047C501.334 33.156 503.825 31.1583 507.013 29.8115C510.245 28.4647 513.971 27.7913 518.191 27.7913C522.411 27.7913 526.092 28.4647 529.235 29.8115C532.422 31.1583 534.914 33.156 536.71 35.8047C538.505 38.4086 539.403 41.596 539.403 45.367C539.403 49.1381 538.505 52.3255 536.71 54.9293C534.914 57.4882 532.422 59.4411 529.235 60.7879C526.092 62.1347 522.411 62.8081 518.191 62.8081ZM518.191 56.0741C520.526 56.0741 522.613 55.67 524.454 54.862C526.339 54.009 527.821 52.7969 528.898 51.2256C529.976 49.6094 530.514 47.6566 530.514 45.367C530.514 43.0775 529.976 41.1246 528.898 39.5084C527.821 37.8474 526.362 36.5904 524.521 35.7374C522.68 34.8844 520.57 34.4579 518.191 34.4579C515.857 34.4579 513.747 34.8844 511.861 35.7374C509.976 36.5904 508.472 37.8249 507.349 39.4411C506.272 41.0573 505.733 43.0326 505.733 45.367C505.733 47.6566 506.272 49.6094 507.349 51.2256C508.427 52.7969 509.908 54.009 511.794 54.862C513.679 55.67 515.812 56.0741 518.191 56.0741ZM545.875 28.532H554.629V62H545.875V28.532ZM567.491 35.7374C564.977 35.7374 562.799 36.2312 560.959 37.2189C559.118 38.1616 557.637 39.3289 556.514 40.7206C555.392 42.1123 554.606 43.4591 554.157 44.761L554.09 41.0573C554.135 40.5185 554.315 39.7329 554.629 38.7004C554.943 37.6229 555.414 36.4781 556.043 35.266C556.672 34.009 557.502 32.8193 558.535 31.697C559.567 30.5298 560.824 29.587 562.306 28.8687C563.787 28.1504 565.515 27.7913 567.491 27.7913V35.7374ZM589.199 62.7407C585.877 62.7407 582.847 62.0224 580.108 60.5859C577.414 59.1044 575.26 57.0617 573.643 54.4579C572.072 51.8092 571.287 48.7565 571.287 45.2997C571.287 41.7531 572.095 38.6779 573.711 36.0741C575.327 33.4703 577.504 31.4501 580.243 30.0135C583.026 28.532 586.169 27.7913 589.67 27.7913C593.531 27.7913 596.629 28.5769 598.963 30.1482C601.343 31.6746 603.071 33.7621 604.148 36.4108C605.226 39.0595 605.765 42.0225 605.765 45.2997C605.765 47.275 605.45 49.2952 604.822 51.3603C604.193 53.3805 603.228 55.266 601.926 57.0168C600.624 58.7228 598.918 60.1145 596.808 61.1919C594.698 62.2245 592.162 62.7407 589.199 62.7407ZM592.027 56.0067C594.676 56.0067 596.966 55.5578 598.896 54.6599C600.826 53.7621 602.308 52.5051 603.34 50.8889C604.373 49.2727 604.889 47.4097 604.889 45.2997C604.889 43.0101 604.35 41.0797 603.273 39.5084C602.24 37.8923 600.759 36.6802 598.829 35.8721C596.943 35.0191 594.676 34.5926 592.027 34.5926C588.301 34.5926 585.405 35.5803 583.34 37.5556C581.275 39.486 580.243 42.0674 580.243 45.2997C580.243 47.4546 580.737 49.3401 581.724 50.9562C582.712 52.5275 584.081 53.7621 585.832 54.6599C587.628 55.5578 589.693 56.0067 592.027 56.0067ZM604.889 28.532H613.643V62H605.495C605.495 62 605.428 61.5735 605.293 60.7205C605.203 59.8227 605.114 58.7003 605.024 57.3535C604.934 56.0067 604.889 54.6824 604.889 53.3805V28.532Z" fill="#2D2D2D"/>
<path d="M99.6094 49.8047C99.6094 77.3111 77.3111 99.6094 49.8047 99.6094C22.2983 99.6094 0 77.3111 0 49.8047C0 22.2983 22.2983 0 49.8047 0C77.3111 0 99.6094 22.2983 99.6094 49.8047Z" fill="#F5E6FF"/>
<path fill-rule="evenodd" clip-rule="evenodd" d="M26.9531 44.5312C26.9531 43.0211 28.1773 41.7969 29.6875 41.7969H70.7031C72.2133 41.7969 73.4375 43.0211 73.4375 44.5312C73.4375 46.0414 72.2133 47.2656 70.7031 47.2656H29.6875C28.1773 47.2656 26.9531 46.0414 26.9531 44.5312Z" fill="#8939C8"/>
<path fill-rule="evenodd" clip-rule="evenodd" d="M30.8594 36.3281C30.8594 34.818 32.0836 33.5938 33.5938 33.5938H67.1875C68.6977 33.5938 69.9219 34.818 69.9219 36.3281C69.9219 37.8383 68.6977 39.0625 67.1875 39.0625H33.5938C32.0836 39.0625 30.8594 37.8383 30.8594 36.3281Z" fill="#8939C8"/>
<path fill-rule="evenodd" clip-rule="evenodd" d="M50 51.3672C51.5102 51.3672 52.7344 52.5914 52.7344 54.1016L52.7344 60.9375C52.7344 62.4477 51.5101 63.6719 50 63.6719C48.4898 63.6719 47.2656 62.4477 47.2656 60.9375L47.2656 54.1016C47.2656 52.5914 48.4898 51.3672 50 51.3672ZM37.8906 51.5625C39.4008 51.5625 40.625 52.7867 40.625 54.2969L40.625 82.0312C40.625 83.5414 39.4008 84.7656 37.8906 84.7656C36.3805 84.7656 35.1563 83.5414 35.1563 82.0312L35.1562 54.2969C35.1562 52.7867 36.3805 51.5625 37.8906 51.5625ZM62.1094 51.5625C63.6195 51.5625 64.8438 52.7867 64.8438 54.2969V82.0312C64.8438 83.5414 63.6195 84.7656 62.1094 84.7656C60.5992 84.7656 59.375 83.5414 59.375 82.0312L59.375 54.2969C59.375 52.7867 60.5992 51.5625 62.1094 51.5625ZM50 67.9688C51.5102 67.9688 52.7344 69.193 52.7344 70.7031V81.6406C52.7344 83.1508 51.5102 84.375 50 84.375C48.4898 84.375 47.2656 83.1508 47.2656 81.6406L47.2656 70.7031C47.2656 69.193 48.4898 67.9688 50 67.9688Z" fill="#8939C8"/>
<path fill-rule="evenodd" clip-rule="evenodd" d="M28.9062 30.6641C28.9062 32.2821 30.2179 33.5938 31.8359 33.5938H35.8168C35.6471 32.2924 35.2902 30.8623 34.6946 29.7121C34.2794 28.9105 33.8488 28.4386 33.4752 28.175C33.1602 27.9529 32.6927 27.7344 31.8359 27.7344C30.2179 27.7344 28.9062 29.046 28.9062 30.6641ZM41.3191 33.5938C40.8844 29.0324 38.691 22.2656 31.8359 22.2656C27.1976 22.2656 23.4375 26.0257 23.4375 30.6641C23.4375 35.3024 27.1976 39.0625 31.8359 39.0625H41.4062C41.4062 37.3399 41.4063 36.1599 41.4062 35.3516C41.4062 35.3465 41.4062 35.3415 41.4062 35.3365C41.4057 34.8136 41.3793 34.2248 41.3191 33.5938ZM67.7734 33.5938C69.3915 33.5938 70.7031 32.2821 70.7031 30.6641C70.7031 29.046 69.3915 27.7344 67.7734 27.7344C66.9166 27.7344 66.4492 27.9529 66.1342 28.175C65.7605 28.4386 65.3299 28.9105 64.9148 29.7121C64.3192 30.8623 63.9623 32.2924 63.7925 33.5938H67.7734ZM58.2031 39.0625C58.2031 37.3399 58.2031 36.1599 58.2031 35.3516C58.2031 31.0547 59.9609 22.2656 67.7734 22.2656C72.4118 22.2656 76.1719 26.0257 76.1719 30.6641C76.1719 35.3024 72.4118 39.0625 67.7734 39.0625H58.2031Z" fill="#8939C8"/>
<path fill-rule="evenodd" clip-rule="evenodd" d="M49.8047 94.1406C74.2908 94.1406 94.1406 74.2908 94.1406 49.8047C94.1406 25.3186 74.2908 5.46875 49.8047 5.46875C25.3186 5.46875 5.46875 25.3186 5.46875 49.8047C5.46875 74.2908 25.3186 94.1406 49.8047 94.1406ZM49.8047 99.6094C77.3111 99.6094 99.6094 77.3111 99.6094 49.8047C99.6094 22.2983 77.3111 0 49.8047 0C22.2983 0 0 22.2983 0 49.8047C0 77.3111 22.2983 99.6094 49.8047 99.6094Z" fill="#8939C8"/>
<path d="M157.192 78.785C157.111 74.5447 154.082 72.041 149.882 72.041C144.632 72.041 140.231 76.0389 139.14 82.5003C138.05 89.1232 141.281 93.2827 146.652 93.2827C150.73 93.2827 154.446 90.7789 155.94 86.5386H153.436C152.346 89.4059 149.559 90.9404 146.732 90.9404C143.058 90.9404 140.635 88.1136 141.523 82.8234C142.411 77.3716 145.925 74.3832 149.761 74.3832C152.427 74.3832 154.607 75.9178 154.728 78.785H157.192ZM164.993 93.3231C169.112 93.3231 172.384 90.2135 173.151 85.4887C173.948 80.5619 171.616 77.2908 167.336 77.2908C163.216 77.2908 159.945 80.4003 159.178 85.1656C158.391 90.052 160.713 93.3231 164.993 93.3231ZM165.034 91.1827C161.924 91.1827 160.995 88.5174 161.48 85.4887C161.995 82.2984 164.024 79.4311 167.295 79.4311C170.405 79.4311 171.334 82.1368 170.849 85.1656C170.334 88.366 168.305 91.1827 165.034 91.1827ZM175.536 93H177.919L179.534 83.308C179.897 81.0465 181.836 79.4311 183.693 79.4311C185.511 79.4311 186.561 80.6023 186.278 82.3791L184.501 93H186.924L188.62 82.9041C188.943 80.8849 190.437 79.4311 192.618 79.4311C194.314 79.4311 195.607 80.3196 195.243 82.6214L193.507 93H195.889L197.626 82.6214C198.232 78.9869 196.535 77.2908 193.789 77.2908C191.568 77.2908 189.751 78.3004 188.701 79.9157H188.539C188.055 78.26 186.843 77.2908 184.824 77.2908C182.805 77.2908 181.149 78.26 180.22 79.9157H180.019L180.422 77.4927H178.121L175.536 93ZM200.246 93H202.628L204.244 83.308C204.607 81.0465 206.545 79.4311 208.403 79.4311C210.22 79.4311 211.27 80.6023 210.988 82.3791L209.211 93H211.634L213.33 82.9041C213.653 80.8849 215.147 79.4311 217.328 79.4311C219.024 79.4311 220.316 80.3196 219.953 82.6214L218.216 93H220.599L222.335 82.6214C222.941 78.9869 221.245 77.2908 218.499 77.2908C216.278 77.2908 214.461 78.3004 213.411 79.9157H213.249C212.765 78.26 211.553 77.2908 209.534 77.2908C207.515 77.2908 205.859 78.26 204.93 79.9157H204.728L205.132 77.4927H202.83L200.246 93ZM235.778 86.6598C235.293 89.5674 232.87 90.9001 231.094 90.9001C229.115 90.9001 227.944 89.4462 228.307 87.1848L229.922 77.4927H227.54L225.884 87.3463C225.238 91.3039 227.015 93.2019 229.922 93.2019C232.265 93.2019 234.042 91.95 235.011 90.3751H235.172L234.728 93H237.111L239.695 77.4927H237.313L235.778 86.6598ZM245.392 83.6714C245.876 80.9657 247.775 79.4311 250.076 79.4311C252.297 79.4311 253.388 80.8849 252.984 83.308L251.369 93H253.751L255.407 83.1464C256.053 79.1888 254.236 77.2908 251.126 77.2908C248.784 77.2908 247.128 78.3408 246.159 79.9157H245.957L246.361 77.4927H244.059L241.475 93H243.857L245.392 83.6714ZM258.105 93H260.488L263.072 77.4927H260.69L258.105 93ZM262.608 74.8678C263.537 74.8678 264.304 74.1409 264.304 73.2525C264.304 72.364 263.537 71.6371 262.608 71.6371C261.679 71.6371 260.912 72.364 260.912 73.2525C260.912 74.1409 261.679 74.8678 262.608 74.8678ZM274.18 77.4927H270.859L271.475 73.7774H269.092L268.476 77.4927H266.144L265.821 79.5119H268.143L266.548 89.2039C266.104 91.9096 268.042 93.2019 270.061 93.2019C270.95 93.2019 271.555 93.0404 271.919 92.9192L271.757 90.7789C271.555 90.8193 271.232 90.9001 270.707 90.9001C269.657 90.9001 268.688 90.577 269.011 88.5578L270.515 79.5119H273.857L274.18 77.4927ZM275.765 98.8152C277.865 98.8152 279.602 97.7249 280.934 95.2413L290.445 77.4927H287.759L281.419 89.8905H281.258L279.036 77.4927H276.553L279.662 93L278.996 94.2115C277.704 96.5638 276.694 96.8768 275.038 96.4326L274.069 98.5325C274.291 98.6537 274.958 98.8152 275.765 98.8152Z" fill="#8939C8"/>
</svg>
