<svg width="521" height="102" viewBox="0 0 521 102" fill="none" xmlns="http://www.w3.org/2000/svg">
<path d="M56.0269 46.3098C55.6228 49.8115 54.3883 52.7969 52.3232 55.266C50.2581 57.7351 47.4523 59.6207 43.9057 60.9226C40.3591 62.2245 36.1391 62.8754 31.2458 62.8754C27.1605 62.8754 23.4119 62.404 20 61.4613C16.633 60.5185 13.7149 59.1044 11.2458 57.2189C8.82154 55.3333 6.93602 52.9989 5.58922 50.2155C4.24242 47.3872 3.56902 44.0876 3.56902 40.3165C3.56902 36.5455 4.24242 33.2458 5.58922 30.4175C6.93602 27.5893 8.82154 25.2324 11.2458 23.3468C13.7149 21.4164 16.633 19.9798 20 19.0371C23.4119 18.0494 27.1605 17.5556 31.2458 17.5556C36.1391 17.5556 40.3591 18.229 43.9057 19.5758C47.4971 20.9226 50.3254 22.853 52.3905 25.367C54.4556 27.8362 55.6677 30.844 56.0269 34.3906H47.138C46.5544 32.5051 45.5667 30.8889 44.175 29.5421C42.8282 28.1504 41.0774 27.0954 38.9225 26.3771C36.7676 25.6588 34.2087 25.2997 31.2458 25.2997C27.5645 25.2997 24.3322 25.8833 21.5488 27.0505C18.7654 28.1729 16.6105 29.8564 15.0842 32.101C13.5578 34.3008 12.7946 37.0393 12.7946 40.3165C12.7946 43.5488 13.5578 46.2649 15.0842 48.4647C16.6105 50.6644 18.7654 52.3479 21.5488 53.5152C24.3322 54.6375 27.5645 55.1987 31.2458 55.1987C34.2087 55.1987 36.7452 54.8395 38.8552 54.1212C41.0101 53.4029 42.7609 52.3704 44.1077 51.0236C45.4994 49.6768 46.5095 48.1055 47.138 46.3098H56.0269ZM83.3511 62.8081C79.1312 62.8081 75.405 62.1347 72.1727 60.7879C68.9853 59.4411 66.4937 57.4882 64.698 54.9293C62.9022 52.3255 62.0044 49.1381 62.0044 45.367C62.0044 41.596 62.9022 38.4086 64.698 35.8047C66.4937 33.156 68.9853 31.1583 72.1727 29.8115C75.405 28.4647 79.1312 27.7913 83.3511 27.7913C87.5711 27.7913 91.2524 28.4647 94.3949 29.8115C97.5823 31.1583 100.074 33.156 101.87 35.8047C103.665 38.4086 104.563 41.596 104.563 45.367C104.563 49.1381 103.665 52.3255 101.87 54.9293C100.074 57.4882 97.5823 59.4411 94.3949 60.7879C91.2524 62.1347 87.5711 62.8081 83.3511 62.8081ZM83.3511 56.0741C85.6856 56.0741 87.7731 55.67 89.6138 54.862C91.4993 54.009 92.9808 52.7969 94.0582 51.2256C95.1356 49.6094 95.6744 47.6566 95.6744 45.367C95.6744 43.0775 95.1356 41.1246 94.0582 39.5084C92.9808 37.8474 91.5217 36.5904 89.6811 35.7374C87.8405 34.8844 85.7305 34.4579 83.3511 34.4579C81.0167 34.4579 78.9067 34.8844 77.0212 35.7374C75.1357 36.5904 73.6317 37.8249 72.5094 39.4411C71.432 41.0573 70.8932 43.0326 70.8932 45.367C70.8932 47.6566 71.432 49.6094 72.5094 51.2256C73.5868 52.7969 75.0683 54.009 76.9538 54.862C78.8394 55.67 80.9718 56.0741 83.3511 56.0741ZM127.331 62.7407C123.964 62.7407 120.911 62.0224 118.173 60.5859C115.479 59.1044 113.347 57.0617 111.775 54.4579C110.204 51.8092 109.419 48.7565 109.419 45.2997C109.419 41.7531 110.182 38.6779 111.708 36.0741C113.279 33.4703 115.412 31.4501 118.105 30.0135C120.799 28.532 123.874 27.7913 127.331 27.7913C130.339 27.7913 132.898 28.2402 135.008 29.1381C137.118 30.0359 138.824 31.293 140.126 32.9091C141.427 34.4804 142.37 36.321 142.954 38.431C143.582 40.541 143.897 42.8305 143.897 45.2997C143.897 47.275 143.582 49.2952 142.954 51.3603C142.325 53.3805 141.36 55.266 140.058 57.0168C138.756 58.7228 137.05 60.1145 134.94 61.1919C132.83 62.2245 130.294 62.7407 127.331 62.7407ZM130.159 56.0067C132.808 56.0067 135.098 55.5578 137.028 54.6599C138.958 53.7621 140.44 52.5051 141.472 50.8889C142.505 49.2727 143.021 47.4097 143.021 45.2997C143.021 43.0101 142.482 41.0797 141.405 39.5084C140.373 37.8923 138.891 36.6577 136.961 35.8047C135.075 34.9518 132.808 34.5253 130.159 34.5253C126.433 34.5253 123.538 35.5129 121.472 37.4882C119.407 39.4635 118.375 42.0674 118.375 45.2997C118.375 47.4546 118.869 49.3401 119.856 50.9562C120.844 52.5275 122.213 53.7621 123.964 54.6599C125.76 55.5578 127.825 56.0067 130.159 56.0067ZM143.021 15.064H151.775V62H143.627C143.493 60.9675 143.358 59.6431 143.223 58.0269C143.089 56.3659 143.021 54.8171 143.021 53.3805V15.064ZM191.716 50.8889H200.201C199.842 53.1785 198.876 55.2211 197.305 57.0168C195.779 58.8126 193.691 60.2267 191.043 61.2593C188.394 62.2918 185.161 62.8081 181.346 62.8081C177.081 62.8081 173.31 62.1347 170.032 60.7879C166.755 59.3962 164.196 57.3984 162.356 54.7946C160.515 52.1908 159.595 49.0483 159.595 45.367C159.595 41.6858 160.493 38.5432 162.288 35.9394C164.084 33.2907 166.576 31.2705 169.763 29.8788C172.995 28.4871 176.766 27.7913 181.076 27.7913C185.476 27.7913 189.135 28.4871 192.053 29.8788C194.971 31.2705 197.126 33.3805 198.517 36.2088C199.954 38.9922 200.56 42.5612 200.335 46.9158H168.416C168.641 48.6218 169.269 50.1706 170.302 51.5623C171.379 52.954 172.816 54.0539 174.612 54.862C176.452 55.67 178.63 56.0741 181.144 56.0741C183.927 56.0741 186.239 55.6027 188.08 54.6599C189.965 53.6723 191.177 52.4153 191.716 50.8889ZM180.672 34.4579C177.44 34.4579 174.814 35.1762 172.793 36.6128C170.773 38.0045 169.471 39.7329 168.888 41.798H191.649C191.424 39.5533 190.347 37.78 188.416 36.4781C186.531 35.1313 183.949 34.4579 180.672 34.4579ZM206.85 28.532H215.604V62H206.85V28.532ZM228.466 35.7374C225.952 35.7374 223.774 36.2312 221.934 37.2189C220.093 38.1616 218.612 39.3289 217.489 40.7206C216.367 42.1123 215.581 43.4591 215.132 44.761L215.065 41.0573C215.11 40.5185 215.289 39.7329 215.604 38.7004C215.918 37.6229 216.389 36.4781 217.018 35.266C217.646 34.009 218.477 32.8193 219.509 31.697C220.542 30.5298 221.799 29.587 223.28 28.8687C224.762 28.1504 226.49 27.7913 228.466 27.7913V35.7374ZM232.531 50.8889H240.612C241.105 52.4153 242.116 53.6723 243.642 54.6599C245.213 55.6027 247.256 56.0741 249.77 56.0741C251.476 56.0741 252.8 55.917 253.743 55.6027C254.686 55.2884 255.337 54.8395 255.696 54.2559C256.055 53.6274 256.234 52.9315 256.234 52.1684C256.234 51.2256 255.943 50.5073 255.359 50.0135C254.775 49.4748 253.878 49.0483 252.665 48.734C251.453 48.4198 249.905 48.128 248.019 47.8586C246.133 47.5443 244.315 47.1628 242.564 46.7138C240.814 46.2649 239.265 45.6813 237.918 44.963C236.571 44.1998 235.494 43.257 234.686 42.1347C233.922 40.9675 233.541 39.5533 233.541 37.8923C233.541 36.2761 233.922 34.8395 234.686 33.5825C235.494 32.3255 236.594 31.2705 237.985 30.4175C239.422 29.5646 241.083 28.9136 242.968 28.4647C244.899 28.0157 246.964 27.7913 249.164 27.7913C252.486 27.7913 255.247 28.2851 257.447 29.2728C259.646 30.2155 261.285 31.5623 262.362 33.3132C263.485 35.0191 264.046 36.9944 264.046 39.2391H256.302C255.943 37.578 255.224 36.3884 254.147 35.6701C253.069 34.9069 251.408 34.5253 249.164 34.5253C246.964 34.5253 245.303 34.862 244.181 35.5354C243.058 36.2088 242.497 37.1291 242.497 38.2963C242.497 39.2391 242.834 39.9798 243.507 40.5185C244.226 41.0124 245.258 41.4164 246.605 41.7307C247.997 42.0449 249.725 42.3816 251.79 42.7408C253.541 43.0999 255.202 43.5039 256.773 43.9529C258.389 44.4018 259.826 44.9854 261.083 45.7037C262.34 46.3771 263.328 47.2974 264.046 48.4647C264.809 49.587 265.191 51.0236 265.191 52.7744C265.191 54.9293 264.562 56.7475 263.305 58.229C262.093 59.7104 260.342 60.8552 258.053 61.6633C255.763 62.4265 253.025 62.8081 249.837 62.8081C247.009 62.8081 244.562 62.5163 242.497 61.9327C240.477 61.3042 238.793 60.5185 237.447 59.5758C236.1 58.5881 235.045 57.5556 234.282 56.4781C233.563 55.3558 233.07 54.3008 232.8 53.3131C232.531 52.3255 232.441 51.5174 232.531 50.8889ZM272.359 35.8047L271.147 33.5152C271.821 32.5275 272.471 31.4276 273.1 30.2155C273.773 28.9585 274.133 27.7015 274.177 26.4445L270.474 25.7037V18.027H280.777V23.5489C280.777 26.6914 280.014 29.2503 278.487 31.2256C277.006 33.156 274.963 34.6824 272.359 35.8047ZM311.663 52.5051V45.0303H340.484V52.5051H311.663ZM300.821 62L321.292 18.431H330.989L351.663 62H341.898L323.986 22.7408H328.296L310.518 62H300.821ZM373.158 56.8822C369.521 56.8822 366.312 56.3434 363.528 55.266C360.79 54.1437 358.657 52.5051 357.131 50.3502C355.604 48.1953 354.841 45.5915 354.841 42.5387C354.841 39.5309 355.582 36.9271 357.063 34.7273C358.545 32.5275 360.655 30.8216 363.393 29.6095C366.177 28.3973 369.432 27.7913 373.158 27.7913C374.19 27.7913 375.178 27.8586 376.121 27.9933C377.108 28.128 378.074 28.3076 379.016 28.532L395.919 28.5994V35.1987C393.629 35.2436 391.295 34.9742 388.915 34.3906C386.581 33.7621 384.516 33.0887 382.72 32.3704L382.518 31.899C384.044 32.6173 385.481 33.5152 386.828 34.5926C388.175 35.6252 389.252 36.8373 390.06 38.229C390.913 39.5758 391.34 41.147 391.34 42.9428C391.34 45.8608 390.599 48.3749 389.117 50.4849C387.636 52.55 385.526 54.1437 382.787 55.266C380.094 56.3434 376.884 56.8822 373.158 56.8822ZM384.404 75.8047V74.1885C384.404 72.1234 383.73 70.6869 382.383 69.8788C381.081 69.0707 379.286 68.6667 376.996 68.6667H366.558C364.538 68.6667 362.832 68.5095 361.441 68.1953C360.094 67.881 359.016 67.4321 358.208 66.8485C357.4 66.2649 356.817 65.569 356.457 64.7609C356.098 63.9978 355.919 63.1672 355.919 62.2694C355.919 60.4736 356.502 59.1268 357.67 58.229C358.837 57.2862 360.408 56.6577 362.383 56.3434C364.359 56.0292 366.536 55.9618 368.915 56.1414L373.158 56.8822C370.329 56.9719 368.219 57.2189 366.828 57.6229C365.481 57.982 364.808 58.7228 364.808 59.8451C364.808 60.5185 365.077 61.0572 365.616 61.4613C366.154 61.8204 366.918 62 367.905 62H378.882C381.889 62 384.448 62.3143 386.558 62.9428C388.713 63.6162 390.352 64.716 391.474 66.2424C392.597 67.8137 393.158 69.9461 393.158 72.6397V75.8047H384.404ZM373.158 50.5522C375.088 50.5522 376.772 50.2379 378.208 49.6094C379.69 48.9809 380.835 48.0831 381.643 46.9158C382.451 45.7037 382.855 44.2671 382.855 42.6061C382.855 40.9001 382.451 39.4411 381.643 38.229C380.835 37.0169 379.712 36.0965 378.276 35.468C376.839 34.7946 375.133 34.4579 373.158 34.4579C371.227 34.4579 369.521 34.7946 368.04 35.468C366.558 36.0965 365.414 37.0169 364.606 38.229C363.797 39.4411 363.393 40.9001 363.393 42.6061C363.393 44.2671 363.797 45.7037 364.606 46.9158C365.414 48.0831 366.536 48.9809 367.973 49.6094C369.454 50.2379 371.182 50.5522 373.158 50.5522ZM420.774 62.8081C416.555 62.8081 412.828 62.1347 409.596 60.7879C406.409 59.4411 403.917 57.4882 402.121 54.9293C400.326 52.3255 399.428 49.1381 399.428 45.367C399.428 41.596 400.326 38.4086 402.121 35.8047C403.917 33.156 406.409 31.1583 409.596 29.8115C412.828 28.4647 416.555 27.7913 420.774 27.7913C424.994 27.7913 428.676 28.4647 431.818 29.8115C435.006 31.1583 437.497 33.156 439.293 35.8047C441.089 38.4086 441.987 41.596 441.987 45.367C441.987 49.1381 441.089 52.3255 439.293 54.9293C437.497 57.4882 435.006 59.4411 431.818 60.7879C428.676 62.1347 424.994 62.8081 420.774 62.8081ZM420.774 56.0741C423.109 56.0741 425.196 55.67 427.037 54.862C428.923 54.009 430.404 52.7969 431.482 51.2256C432.559 49.6094 433.098 47.6566 433.098 45.367C433.098 43.0775 432.559 41.1246 431.482 39.5084C430.404 37.8474 428.945 36.5904 427.104 35.7374C425.264 34.8844 423.154 34.4579 420.774 34.4579C418.44 34.4579 416.33 34.8844 414.445 35.7374C412.559 36.5904 411.055 37.8249 409.933 39.4411C408.855 41.0573 408.317 43.0326 408.317 45.367C408.317 47.6566 408.855 49.6094 409.933 51.2256C411.01 52.7969 412.492 54.009 414.377 54.862C416.263 55.67 418.395 56.0741 420.774 56.0741ZM448.458 28.532H457.212V62H448.458V28.532ZM470.074 35.7374C467.56 35.7374 465.383 36.2312 463.542 37.2189C461.702 38.1616 460.22 39.3289 459.098 40.7206C457.975 42.1123 457.19 43.4591 456.741 44.761L456.674 41.0573C456.718 40.5185 456.898 39.7329 457.212 38.7004C457.527 37.6229 457.998 36.4781 458.626 35.266C459.255 34.009 460.085 32.8193 461.118 31.697C462.151 30.5298 463.408 29.587 464.889 28.8687C466.371 28.1504 468.099 27.7913 470.074 27.7913V35.7374ZM491.782 62.7407C488.46 62.7407 485.43 62.0224 482.692 60.5859C479.998 59.1044 477.843 57.0617 476.227 54.4579C474.656 51.8092 473.87 48.7565 473.87 45.2997C473.87 41.7531 474.678 38.6779 476.294 36.0741C477.91 33.4703 480.088 31.4501 482.826 30.0135C485.61 28.532 488.752 27.7913 492.254 27.7913C496.115 27.7913 499.212 28.5769 501.547 30.1482C503.926 31.6746 505.654 33.7621 506.732 36.4108C507.809 39.0595 508.348 42.0225 508.348 45.2997C508.348 47.275 508.034 49.2952 507.405 51.3603C506.777 53.3805 505.812 55.266 504.51 57.0168C503.208 58.7228 501.502 60.1145 499.392 61.1919C497.282 62.2245 494.745 62.7407 491.782 62.7407ZM494.611 56.0067C497.259 56.0067 499.549 55.5578 501.479 54.6599C503.41 53.7621 504.891 52.5051 505.924 50.8889C506.956 49.2727 507.473 47.4097 507.473 45.2997C507.473 43.0101 506.934 41.0797 505.856 39.5084C504.824 37.8923 503.342 36.6802 501.412 35.8721C499.527 35.0191 497.259 34.5926 494.611 34.5926C490.885 34.5926 487.989 35.5803 485.924 37.5556C483.859 39.486 482.826 42.0674 482.826 45.2997C482.826 47.4546 483.32 49.3401 484.308 50.9562C485.295 52.5275 486.665 53.7621 488.415 54.6599C490.211 55.5578 492.276 56.0067 494.611 56.0067ZM507.473 28.532H516.227V62H508.079C508.079 62 508.011 61.5735 507.877 60.7205C507.787 59.8227 507.697 58.7003 507.607 57.3535C507.518 56.0067 507.473 54.6824 507.473 53.3805V28.532Z" fill="#2D2D2D"/>
<path d="M29.1918 80.785C29.111 76.5447 26.0822 74.041 21.8823 74.041C16.6325 74.041 12.2307 78.0389 11.1403 84.5003C10.05 91.1232 13.2807 95.2827 18.6517 95.2827C22.7304 95.2827 26.4457 92.7789 27.9399 88.5386H25.4361C24.3457 91.4059 21.5593 92.9404 18.7324 92.9404C15.0575 92.9404 12.6345 90.1136 13.523 84.8234C14.4114 79.3716 17.9248 76.3832 21.7612 76.3832C24.4265 76.3832 26.6072 77.9178 26.7284 80.785H29.1918ZM36.9934 95.3231C41.1125 95.3231 44.3835 92.2135 45.1508 87.4887C45.9484 82.5619 43.6163 79.2908 39.3356 79.2908C35.2165 79.2908 31.9454 82.4003 31.1781 87.1656C30.3906 92.052 32.7127 95.3231 36.9934 95.3231ZM37.0337 93.1827C33.9242 93.1827 32.9954 90.5174 33.48 87.4887C33.9949 84.2984 36.0241 81.4311 39.2952 81.4311C42.4047 81.4311 43.3336 84.1368 42.849 87.1656C42.3341 90.366 40.3048 93.1827 37.0337 93.1827ZM47.536 95H49.9186L51.5339 85.308C51.8974 83.0465 53.8358 81.4311 55.6934 81.4311C57.5107 81.4311 58.5607 82.6023 58.278 84.3791L56.5011 95H58.9241L60.6202 84.9041C60.9433 82.8849 62.4375 81.4311 64.6182 81.4311C66.3143 81.4311 67.6066 82.3196 67.2431 84.6214L65.5066 95H67.8893L69.6258 84.6214C70.2315 80.9869 68.5354 79.2908 65.7893 79.2908C63.5682 79.2908 61.751 80.3004 60.701 81.9157H60.5395C60.0549 80.26 58.8434 79.2908 56.8242 79.2908C54.805 79.2908 53.1493 80.26 52.2205 81.9157H52.0185L52.4224 79.4927H50.1205L47.536 95ZM72.2456 95H74.6283L76.2436 85.308C76.6071 83.0465 78.5455 81.4311 80.4031 81.4311C82.2204 81.4311 83.2703 82.6023 82.9877 84.3791L81.2108 95H83.6338L85.3299 84.9041C85.653 82.8849 87.1472 81.4311 89.3279 81.4311C91.024 81.4311 92.3163 82.3196 91.9528 84.6214L90.2163 95H92.5989L94.3354 84.6214C94.9412 80.9869 93.2451 79.2908 90.499 79.2908C88.2779 79.2908 86.4606 80.3004 85.4107 81.9157H85.2491C84.7645 80.26 83.553 79.2908 81.5339 79.2908C79.5147 79.2908 77.859 80.26 76.9301 81.9157H76.7282L77.1321 79.4927H74.8302L72.2456 95ZM107.778 88.6598C107.293 91.5674 104.87 92.9001 103.094 92.9001C101.115 92.9001 99.9437 91.4462 100.307 89.1848L101.922 79.4927H99.5399L97.8841 89.3463C97.238 93.3039 99.0149 95.2019 101.922 95.2019C104.265 95.2019 106.042 93.95 107.011 92.3751H107.172L106.728 95H109.111L111.695 79.4927H109.313L107.778 88.6598ZM117.392 85.6714C117.876 82.9657 119.775 81.4311 122.076 81.4311C124.297 81.4311 125.388 82.8849 124.984 85.308L123.369 95H125.751L127.407 85.1464C128.053 81.1888 126.236 79.2908 123.126 79.2908C120.784 79.2908 119.128 80.3408 118.159 81.9157H117.957L118.361 79.4927H116.059L113.475 95H115.857L117.392 85.6714ZM130.105 95H132.488L135.072 79.4927H132.69L130.105 95ZM134.608 76.8678C135.537 76.8678 136.304 76.1409 136.304 75.2525C136.304 74.364 135.537 73.6371 134.608 73.6371C133.679 73.6371 132.912 74.364 132.912 75.2525C132.912 76.1409 133.679 76.8678 134.608 76.8678ZM146.18 79.4927H142.859L143.475 75.7774H141.092L140.476 79.4927H138.144L137.821 81.5119H140.143L138.548 91.2039C138.104 93.9096 140.042 95.2019 142.061 95.2019C142.95 95.2019 143.555 95.0404 143.919 94.9192L143.757 92.7789C143.555 92.8193 143.232 92.9001 142.707 92.9001C141.657 92.9001 140.688 92.577 141.011 90.5578L142.515 81.5119H145.857L146.18 79.4927ZM147.765 100.815C149.865 100.815 151.602 99.7249 152.934 97.2413L162.445 79.4927H159.759L153.419 91.8905H153.258L151.036 79.4927H148.553L151.662 95L150.996 96.2115C149.704 98.5638 148.694 98.8768 147.038 98.4326L146.069 100.533C146.291 100.654 146.958 100.815 147.765 100.815Z" fill="#8939C8"/>
</svg>
