<svg width="493" height="61" viewBox="0 0 493 61" fill="none" xmlns="http://www.w3.org/2000/svg">
<path d="M53.0269 31.3098C52.6228 34.8115 51.3883 37.7969 49.3232 40.266C47.2581 42.7351 44.4523 44.6207 40.9057 45.9226C37.3591 47.2245 33.1391 47.8754 28.2458 47.8754C24.1605 47.8754 20.4119 47.404 17 46.4613C13.633 45.5185 10.7149 44.1044 8.24578 42.2189C5.82154 40.3333 3.93602 37.9989 2.58922 35.2155C1.24242 32.3872 0.56902 29.0876 0.56902 25.3165C0.56902 21.5455 1.24242 18.2458 2.58922 15.4175C3.93602 12.5893 5.82154 10.2324 8.24578 8.34684C10.7149 6.41643 13.633 4.97984 17 4.03708C20.4119 3.04943 24.1605 2.5556 28.2458 2.5556C33.1391 2.5556 37.3591 3.229 40.9057 4.5758C44.4971 5.9226 47.3254 7.85301 49.3905 10.367C51.4556 12.8362 52.6677 15.844 53.0269 19.3906H44.138C43.5544 17.5051 42.5667 15.8889 41.175 14.5421C39.8282 13.1504 38.0774 12.0954 35.9225 11.3771C33.7676 10.6588 31.2087 10.2997 28.2458 10.2997C24.5645 10.2997 21.3322 10.8833 18.5488 12.0505C15.7654 13.1729 13.6105 14.8564 12.0842 17.101C10.5578 19.3008 9.7946 22.0393 9.7946 25.3165C9.7946 28.5488 10.5578 31.2649 12.0842 33.4647C13.6105 35.6644 15.7654 37.3479 18.5488 38.5152C21.3322 39.6375 24.5645 40.1987 28.2458 40.1987C31.2087 40.1987 33.7452 39.8395 35.8552 39.1212C38.0101 38.4029 39.7609 37.3704 41.1077 36.0236C42.4994 34.6768 43.5095 33.1055 44.138 31.3098H53.0269ZM80.3511 47.8081C76.1312 47.8081 72.405 47.1347 69.1727 45.7879C65.9853 44.4411 63.4937 42.4882 61.698 39.9293C59.9022 37.3255 59.0044 34.1381 59.0044 30.367C59.0044 26.596 59.9022 23.4086 61.698 20.8047C63.4937 18.156 65.9853 16.1583 69.1727 14.8115C72.405 13.4647 76.1312 12.7913 80.3511 12.7913C84.5711 12.7913 88.2524 13.4647 91.3949 14.8115C94.5823 16.1583 97.0739 18.156 98.8696 20.8047C100.665 23.4086 101.563 26.596 101.563 30.367C101.563 34.1381 100.665 37.3255 98.8696 39.9293C97.0739 42.4882 94.5823 44.4411 91.3949 45.7879C88.2524 47.1347 84.5711 47.8081 80.3511 47.8081ZM80.3511 41.0741C82.6856 41.0741 84.7731 40.67 86.6138 39.862C88.4993 39.009 89.9808 37.7969 91.0582 36.2256C92.1356 34.6094 92.6744 32.6566 92.6744 30.367C92.6744 28.0775 92.1356 26.1246 91.0582 24.5084C89.9808 22.8474 88.5217 21.5904 86.6811 20.7374C84.8405 19.8844 82.7305 19.4579 80.3511 19.4579C78.0167 19.4579 75.9067 19.8844 74.0212 20.7374C72.1357 21.5904 70.6317 22.8249 69.5094 24.4411C68.432 26.0573 67.8932 28.0326 67.8932 30.367C67.8932 32.6566 68.432 34.6094 69.5094 36.2256C70.5868 37.7969 72.0683 39.009 73.9538 39.862C75.8394 40.67 77.9718 41.0741 80.3511 41.0741ZM124.331 47.7407C120.964 47.7407 117.911 47.0224 115.173 45.5859C112.479 44.1044 110.347 42.0617 108.775 39.4579C107.204 36.8092 106.419 33.7565 106.419 30.2997C106.419 26.7531 107.182 23.6779 108.708 21.0741C110.279 18.4703 112.412 16.4501 115.105 15.0135C117.799 13.532 120.874 12.7913 124.331 12.7913C127.339 12.7913 129.898 13.2402 132.008 14.1381C134.118 15.0359 135.824 16.293 137.126 17.9091C138.427 19.4804 139.37 21.321 139.954 23.431C140.582 25.541 140.897 27.8305 140.897 30.2997C140.897 32.275 140.582 34.2952 139.954 36.3603C139.325 38.3805 138.36 40.266 137.058 42.0168C135.756 43.7228 134.05 45.1145 131.94 46.1919C129.83 47.2245 127.294 47.7407 124.331 47.7407ZM127.159 41.0067C129.808 41.0067 132.098 40.5578 134.028 39.6599C135.958 38.7621 137.44 37.5051 138.472 35.8889C139.505 34.2727 140.021 32.4097 140.021 30.2997C140.021 28.0101 139.482 26.0797 138.405 24.5084C137.373 22.8923 135.891 21.6577 133.961 20.8047C132.075 19.9518 129.808 19.5253 127.159 19.5253C123.433 19.5253 120.538 20.5129 118.472 22.4882C116.407 24.4635 115.375 27.0674 115.375 30.2997C115.375 32.4546 115.869 34.3401 116.856 35.9562C117.844 37.5275 119.213 38.7621 120.964 39.6599C122.76 40.5578 124.825 41.0067 127.159 41.0067ZM140.021 0.0640208H148.775V47H140.627C140.493 45.9675 140.358 44.6431 140.223 43.0269C140.089 41.3659 140.021 39.8171 140.021 38.3805V0.0640208ZM188.716 35.8889H197.201C196.842 38.1785 195.876 40.2211 194.305 42.0168C192.779 43.8126 190.691 45.2267 188.043 46.2593C185.394 47.2918 182.161 47.8081 178.346 47.8081C174.081 47.8081 170.31 47.1347 167.032 45.7879C163.755 44.3962 161.196 42.3984 159.356 39.7946C157.515 37.1908 156.595 34.0483 156.595 30.367C156.595 26.6858 157.493 23.5432 159.288 20.9394C161.084 18.2907 163.576 16.2705 166.763 14.8788C169.995 13.4871 173.766 12.7913 178.076 12.7913C182.476 12.7913 186.135 13.4871 189.053 14.8788C191.971 16.2705 194.126 18.3805 195.517 21.2088C196.954 23.9922 197.56 27.5612 197.335 31.9158H165.416C165.641 33.6218 166.269 35.1706 167.302 36.5623C168.379 37.954 169.816 39.0539 171.612 39.862C173.452 40.67 175.63 41.0741 178.144 41.0741C180.927 41.0741 183.239 40.6027 185.08 39.6599C186.965 38.6723 188.177 37.4153 188.716 35.8889ZM177.672 19.4579C174.44 19.4579 171.814 20.1762 169.793 21.6128C167.773 23.0045 166.471 24.7329 165.888 26.798H188.649C188.424 24.5533 187.347 22.78 185.416 21.4781C183.531 20.1313 180.949 19.4579 177.672 19.4579ZM203.85 13.532H212.604V47H203.85V13.532ZM225.466 20.7374C222.952 20.7374 220.774 21.2312 218.934 22.2189C217.093 23.1616 215.612 24.3289 214.489 25.7206C213.367 27.1123 212.581 28.4591 212.132 29.761L212.065 26.0573C212.11 25.5185 212.289 24.7329 212.604 23.7004C212.918 22.6229 213.389 21.4781 214.018 20.266C214.646 19.009 215.477 17.8193 216.509 16.697C217.542 15.5298 218.799 14.587 220.28 13.8687C221.762 13.1504 223.49 12.7913 225.466 12.7913V20.7374ZM229.531 35.8889H237.612C238.105 37.4153 239.116 38.6723 240.642 39.6599C242.213 40.6027 244.256 41.0741 246.77 41.0741C248.476 41.0741 249.8 40.917 250.743 40.6027C251.686 40.2884 252.337 39.8395 252.696 39.2559C253.055 38.6274 253.234 37.9315 253.234 37.1684C253.234 36.2256 252.943 35.5073 252.359 35.0135C251.775 34.4748 250.878 34.0483 249.665 33.734C248.453 33.4198 246.905 33.128 245.019 32.8586C243.133 32.5443 241.315 32.1628 239.564 31.7138C237.814 31.2649 236.265 30.6813 234.918 29.963C233.571 29.1998 232.494 28.257 231.686 27.1347C230.922 25.9675 230.541 24.5533 230.541 22.8923C230.541 21.2761 230.922 19.8395 231.686 18.5825C232.494 17.3255 233.594 16.2705 234.985 15.4175C236.422 14.5646 238.083 13.9136 239.968 13.4647C241.899 13.0157 243.964 12.7913 246.164 12.7913C249.486 12.7913 252.247 13.2851 254.447 14.2728C256.646 15.2155 258.285 16.5623 259.362 18.3132C260.485 20.0191 261.046 21.9944 261.046 24.2391H253.302C252.943 22.578 252.224 21.3884 251.147 20.6701C250.069 19.9069 248.408 19.5253 246.164 19.5253C243.964 19.5253 242.303 19.862 241.181 20.5354C240.058 21.2088 239.497 22.1291 239.497 23.2963C239.497 24.2391 239.834 24.9798 240.507 25.5185C241.226 26.0124 242.258 26.4164 243.605 26.7307C244.997 27.0449 246.725 27.3816 248.79 27.7408C250.541 28.0999 252.202 28.5039 253.773 28.9529C255.389 29.4018 256.826 29.9854 258.083 30.7037C259.34 31.3771 260.328 32.2974 261.046 33.4647C261.809 34.587 262.191 36.0236 262.191 37.7744C262.191 39.9293 261.562 41.7475 260.305 43.229C259.093 44.7104 257.342 45.8552 255.053 46.6633C252.763 47.4265 250.025 47.8081 246.837 47.8081C244.009 47.8081 241.562 47.5163 239.497 46.9327C237.477 46.3042 235.793 45.5185 234.447 44.5758C233.1 43.5881 232.045 42.5556 231.282 41.4781C230.563 40.3558 230.07 39.3008 229.8 38.3131C229.531 37.3255 229.441 36.5174 229.531 35.8889ZM269.359 20.8047L268.147 18.5152C268.821 17.5275 269.471 16.4276 270.1 15.2155C270.773 13.9585 271.133 12.7015 271.177 11.4445L267.474 10.7037V3.02698H277.777V8.54886C277.777 11.6914 277.014 14.2503 275.487 16.2256C274.006 18.156 271.963 19.6824 269.359 20.8047ZM288.079 37.5051V30.0303H316.901V37.5051H288.079ZM277.237 47L297.709 3.43102H307.406L328.079 47H318.315L300.402 7.74078H304.712L286.934 47H277.237ZM349.574 41.8822C345.938 41.8822 342.728 41.3434 339.945 40.266C337.206 39.1437 335.074 37.5051 333.547 35.3502C332.021 33.1953 331.258 30.5915 331.258 27.5387C331.258 24.5309 331.999 21.9271 333.48 19.7273C334.962 17.5275 337.072 15.8216 339.81 14.6095C342.593 13.3973 345.848 12.7913 349.574 12.7913C350.607 12.7913 351.595 12.8586 352.537 12.9933C353.525 13.128 354.49 13.3076 355.433 13.532L372.335 13.5994V20.1987C370.046 20.2436 367.711 19.9742 365.332 19.3906C362.997 18.7621 360.932 18.0887 359.137 17.3704L358.935 16.899C360.461 17.6173 361.898 18.5152 363.244 19.5926C364.591 20.6252 365.669 21.8373 366.477 23.229C367.33 24.5758 367.756 26.147 367.756 27.9428C367.756 30.8608 367.015 33.3749 365.534 35.4849C364.052 37.55 361.942 39.1437 359.204 40.266C356.51 41.3434 353.3 41.8822 349.574 41.8822ZM360.82 60.8047V59.1885C360.82 57.1234 360.147 55.6869 358.8 54.8788C357.498 54.0707 355.702 53.6667 353.413 53.6667H342.975C340.955 53.6667 339.249 53.5095 337.857 53.1953C336.51 52.881 335.433 52.4321 334.625 51.8485C333.817 51.2649 333.233 50.569 332.874 49.7609C332.515 48.9978 332.335 48.1672 332.335 47.2694C332.335 45.4736 332.919 44.1268 334.086 43.229C335.253 42.2862 336.825 41.6577 338.8 41.3434C340.775 41.0292 342.953 40.9618 345.332 41.1414L349.574 41.8822C346.746 41.9719 344.636 42.2189 343.244 42.6229C341.898 42.982 341.224 43.7228 341.224 44.8451C341.224 45.5185 341.494 46.0572 342.032 46.4613C342.571 46.8204 343.334 47 344.322 47H355.298C358.306 47 360.865 47.3143 362.975 47.9428C365.13 48.6162 366.768 49.716 367.891 51.2424C369.013 52.8137 369.574 54.9461 369.574 57.6397V60.8047H360.82ZM349.574 35.5522C351.505 35.5522 353.188 35.2379 354.625 34.6094C356.106 33.9809 357.251 33.0831 358.059 31.9158C358.867 30.7037 359.271 29.2671 359.271 27.6061C359.271 25.9001 358.867 24.4411 358.059 23.229C357.251 22.0169 356.129 21.0965 354.692 20.468C353.256 19.7946 351.55 19.4579 349.574 19.4579C347.644 19.4579 345.938 19.7946 344.456 20.468C342.975 21.0965 341.83 22.0169 341.022 23.229C340.214 24.4411 339.81 25.9001 339.81 27.6061C339.81 29.2671 340.214 30.7037 341.022 31.9158C341.83 33.0831 342.953 33.9809 344.389 34.6094C345.871 35.2379 347.599 35.5522 349.574 35.5522ZM397.191 47.8081C392.971 47.8081 389.245 47.1347 386.013 45.7879C382.825 44.4411 380.334 42.4882 378.538 39.9293C376.742 37.3255 375.844 34.1381 375.844 30.367C375.844 26.596 376.742 23.4086 378.538 20.8047C380.334 18.156 382.825 16.1583 386.013 14.8115C389.245 13.4647 392.971 12.7913 397.191 12.7913C401.411 12.7913 405.092 13.4647 408.235 14.8115C411.422 16.1583 413.914 18.156 415.71 20.8047C417.505 23.4086 418.403 26.596 418.403 30.367C418.403 34.1381 417.505 37.3255 415.71 39.9293C413.914 42.4882 411.422 44.4411 408.235 45.7879C405.092 47.1347 401.411 47.8081 397.191 47.8081ZM397.191 41.0741C399.526 41.0741 401.613 40.67 403.454 39.862C405.339 39.009 406.821 37.7969 407.898 36.2256C408.976 34.6094 409.514 32.6566 409.514 30.367C409.514 28.0775 408.976 26.1246 407.898 24.5084C406.821 22.8474 405.362 21.5904 403.521 20.7374C401.68 19.8844 399.57 19.4579 397.191 19.4579C394.857 19.4579 392.747 19.8844 390.861 20.7374C388.976 21.5904 387.472 22.8249 386.349 24.4411C385.272 26.0573 384.733 28.0326 384.733 30.367C384.733 32.6566 385.272 34.6094 386.349 36.2256C387.427 37.7969 388.908 39.009 390.794 39.862C392.679 40.67 394.812 41.0741 397.191 41.0741ZM424.875 13.532H433.629V47H424.875V13.532ZM446.491 20.7374C443.977 20.7374 441.799 21.2312 439.959 22.2189C438.118 23.1616 436.637 24.3289 435.514 25.7206C434.392 27.1123 433.606 28.4591 433.157 29.761L433.09 26.0573C433.135 25.5185 433.315 24.7329 433.629 23.7004C433.943 22.6229 434.414 21.4781 435.043 20.266C435.672 19.009 436.502 17.8193 437.535 16.697C438.567 15.5298 439.824 14.587 441.306 13.8687C442.787 13.1504 444.515 12.7913 446.491 12.7913V20.7374ZM468.199 47.7407C464.877 47.7407 461.847 47.0224 459.108 45.5859C456.414 44.1044 454.26 42.0617 452.643 39.4579C451.072 36.8092 450.287 33.7565 450.287 30.2997C450.287 26.7531 451.095 23.6779 452.711 21.0741C454.327 18.4703 456.504 16.4501 459.243 15.0135C462.026 13.532 465.169 12.7913 468.67 12.7913C472.531 12.7913 475.629 13.5769 477.963 15.1482C480.343 16.6746 482.071 18.7621 483.148 21.4108C484.226 24.0595 484.765 27.0225 484.765 30.2997C484.765 32.275 484.45 34.2952 483.822 36.3603C483.193 38.3805 482.228 40.266 480.926 42.0168C479.624 43.7228 477.918 45.1145 475.808 46.1919C473.698 47.2245 471.162 47.7407 468.199 47.7407ZM471.027 41.0067C473.676 41.0067 475.966 40.5578 477.896 39.6599C479.826 38.7621 481.308 37.5051 482.34 35.8889C483.373 34.2727 483.889 32.4097 483.889 30.2997C483.889 28.0101 483.35 26.0797 482.273 24.5084C481.24 22.8923 479.759 21.6802 477.829 20.8721C475.943 20.0191 473.676 19.5926 471.027 19.5926C467.301 19.5926 464.405 20.5803 462.34 22.5556C460.275 24.486 459.243 27.0674 459.243 30.2997C459.243 32.4546 459.737 34.3401 460.724 35.9562C461.712 37.5275 463.081 38.7621 464.832 39.6599C466.628 40.5578 468.693 41.0067 471.027 41.0067ZM483.889 13.532H492.643V47H484.495C484.495 47 484.428 46.5735 484.293 45.7205C484.203 44.8227 484.114 43.7003 484.024 42.3535C483.934 41.0067 483.889 39.6824 483.889 38.3805V13.532Z" fill="#2D2D2D"/>
</svg>
