<svg width="150" height="147" viewBox="0 0 150 147" fill="none" xmlns="http://www.w3.org/2000/svg">
<path d="M63.9184 71.6122C60.4286 71.6122 57.6735 74.6734 57.6735 78.4081C57.6735 82.1428 60.4898 85.204 63.9184 85.204C67.4082 85.204 70.1633 82.1428 70.1633 78.4081C70.2245 74.6734 67.4082 71.6122 63.9184 71.6122ZM86.2653 71.6122C82.7755 71.6122 80.0204 74.6734 80.0204 78.4081C80.0204 82.1428 82.8367 85.204 86.2653 85.204C89.7551 85.204 92.5102 82.1428 92.5102 78.4081C92.5102 74.6734 89.7551 71.6122 86.2653 71.6122Z" fill="#7289DA"/>
<path d="M116.02 20.2449H33.9796C27.0612 20.2449 21.4286 25.8775 21.4286 32.8571V115.633C21.4286 122.612 27.0612 128.245 33.9796 128.245H103.408L100.163 116.918L108 124.204L115.408 131.061L128.571 142.694V32.8571C128.571 25.8775 122.939 20.2449 116.02 20.2449ZM92.3877 100.204C92.3877 100.204 90.1837 97.5714 88.3469 95.2449C96.3673 92.9796 99.4286 87.9592 99.4286 87.9592C96.9184 89.6122 94.5306 90.7755 92.3877 91.5714C89.3265 92.8571 86.3877 93.7143 83.5102 94.2041C77.6326 95.3061 72.2449 95 67.6531 94.1428C64.1633 93.4694 61.1633 92.4898 58.6531 91.5102C57.2449 90.9592 55.7143 90.2857 54.1837 89.4286C54 89.3061 53.8163 89.2449 53.6327 89.1224C53.5102 89.0612 53.449 89 53.3878 88.9388C52.2857 88.3265 51.6735 87.8979 51.6735 87.8979C51.6735 87.8979 54.6122 92.7959 62.3878 95.1224C60.551 97.449 58.2857 100.204 58.2857 100.204C44.7551 99.7755 39.6122 90.8979 39.6122 90.8979C39.6122 71.1836 48.4286 55.2041 48.4286 55.2041C57.2449 48.5918 65.6326 48.7755 65.6326 48.7755L66.2449 49.5102C55.2245 52.6939 50.1429 57.5306 50.1429 57.5306C50.1429 57.5306 51.4898 56.7959 53.7551 55.7551C60.3061 52.8775 65.5102 52.0816 67.6531 51.8979C68.0204 51.8367 68.3265 51.7755 68.6939 51.7755C72.4286 51.2857 76.6531 51.1632 81.0612 51.653C86.8775 52.3265 93.1224 54.0408 99.4898 57.5306C99.4898 57.5306 94.6531 52.9388 84.2449 49.7551L85.102 48.7755C85.102 48.7755 93.4898 48.5918 102.306 55.2041C102.306 55.2041 111.122 71.1836 111.122 90.8979C111.122 90.8979 105.918 99.7755 92.3877 100.204V100.204Z" fill="#7289DA"/>
</svg>
