<svg width="150" height="150" viewBox="0 0 150 150" fill="none" xmlns="http://www.w3.org/2000/svg">
<g clip-path="url(#clip0)">
<path d="M112.966 39.5693C105.891 36.3604 98.3048 33.9961 90.3725 32.642C90.2281 32.6159 90.0838 32.6812 90.0094 32.8118C89.0336 34.5273 87.9529 36.7653 87.1961 38.5243C78.6644 37.2617 70.1765 37.2617 61.8197 38.5243C61.0627 36.7262 59.9427 34.5273 58.9627 32.8118C58.8882 32.6856 58.7439 32.6203 58.5995 32.642C50.6716 33.9918 43.085 36.356 36.0058 39.5693C35.9445 39.5955 35.892 39.639 35.8571 39.6956C21.4669 60.9478 17.5249 81.6776 19.4587 102.15C19.4675 102.251 19.5243 102.346 19.6031 102.407C29.0973 109.3 38.2941 113.484 47.3202 116.257C47.4646 116.301 47.6177 116.249 47.7096 116.131C49.8447 113.249 51.748 110.21 53.3798 107.014C53.4761 106.827 53.3842 106.605 53.1874 106.531C50.1685 105.398 47.2939 104.018 44.5287 102.451C44.31 102.325 44.2925 102.015 44.4937 101.867C45.0756 101.436 45.6577 100.988 46.2133 100.535C46.3138 100.452 46.4539 100.435 46.5721 100.487C64.7379 108.686 84.4046 108.686 102.356 100.487C102.474 100.43 102.614 100.448 102.719 100.531C103.275 100.983 103.857 101.436 104.443 101.867C104.644 102.015 104.631 102.325 104.413 102.451C101.647 104.049 98.7729 105.398 95.7496 106.526C95.5528 106.6 95.4652 106.827 95.5615 107.014C97.2284 110.205 99.1317 113.244 101.227 116.127C101.315 116.249 101.472 116.301 101.617 116.257C110.687 113.484 119.883 109.3 129.378 102.407C129.461 102.346 129.513 102.255 129.522 102.155C131.836 78.4859 125.646 57.9261 113.11 39.6999C113.08 39.639 113.027 39.5955 112.966 39.5693ZM56.0926 89.6846C50.6234 89.6846 46.117 84.721 46.117 78.6253C46.117 72.5296 50.536 67.566 56.0926 67.566C61.6928 67.566 66.1556 72.5732 66.0681 78.6253C66.0681 84.721 61.649 89.6846 56.0926 89.6846ZM92.9757 89.6846C87.5067 89.6846 83.0003 84.721 83.0003 78.6253C83.0003 72.5296 87.4191 67.566 92.9757 67.566C98.5761 67.566 103.039 72.5732 102.951 78.6253C102.951 84.721 98.5761 89.6846 92.9757 89.6846Z" fill="#5865F2"/>
</g>
<defs>
<clipPath id="clip0">
<rect width="111" height="85" fill="white" transform="translate(19 32)"/>
</clipPath>
</defs>
</svg>
