<svg width="150" height="150" viewBox="0 0 150 150" fill="none" xmlns="http://www.w3.org/2000/svg">
<path d="M75 129C104.823 129 129 104.823 129 75C129 45.1766 104.823 21 75 21C45.1766 21 21 45.1766 21 75C21 104.823 45.1766 129 75 129Z" fill="url(#paint0_linear)"/>
<path fill-rule="evenodd" clip-rule="evenodd" d="M45.4435 74.43C61.1856 67.5715 71.6828 63.0499 76.9351 60.8652C91.9315 54.6277 95.0476 53.5442 97.0786 53.5084C97.5253 53.5006 98.5241 53.6113 99.1711 54.1363C99.7174 54.5795 99.8677 55.1784 99.9397 55.5986C100.012 56.0189 100.101 56.9763 100.03 57.7244C99.2173 66.2631 95.7009 86.9842 93.912 96.5477C93.155 100.594 91.6646 101.951 90.2216 102.084C87.0857 102.373 84.7045 100.012 81.6672 98.0206C76.9145 94.9051 74.2295 92.9658 69.6162 89.9256C64.2847 86.4123 67.7409 84.4813 70.7793 81.3255C71.5745 80.4996 85.3912 67.9322 85.6587 66.7921C85.6921 66.6495 85.7232 66.118 85.4074 65.8374C85.0917 65.5567 84.6257 65.6527 84.2894 65.729C83.8127 65.8372 76.2202 70.8556 61.5119 80.7841C59.3567 82.264 57.4047 82.985 55.6558 82.9472C53.7277 82.9056 50.0188 81.8571 47.2617 80.9608C43.8799 79.8616 41.1922 79.2804 41.4262 77.4135C41.5481 76.441 42.8872 75.4466 45.4435 74.43Z" fill="white"/>
<defs>
<linearGradient id="paint0_linear" x1="75" y1="21" x2="75" y2="128.199" gradientUnits="userSpaceOnUse">
<stop stop-color="#2AABEE"/>
<stop offset="1" stop-color="#229ED9"/>
</linearGradient>
</defs>
</svg>
